<?xml version="1.0" standalone="no"?>
<!DOCTYPE svg PUBLIC "-//W3C//DTD SVG 20010904//EN"
 "http://www.w3.org/TR/2001/REC-SVG-20010904/DTD/svg10.dtd">
<svg version="1.0" xmlns="http://www.w3.org/2000/svg"
 width="256.000000pt" height="256.000000pt" viewBox="0 0 256.000000 256.000000"
 preserveAspectRatio="xMidYMid meet">
<metadata>
Created by potrace 1.14, written by Peter Selinger 2001-2017
</metadata>
<g transform="translate(0.000000,256.000000) scale(0.100000,-0.100000)"
fill="#000000" stroke="none">
<path d="M1149 2516 c-2 -2 -29 -7 -59 -11 -68 -8 -221 -50 -274 -76 -22 -10
-45 -19 -50 -19 -15 0 -191 -106 -241 -144 -121 -94 -266 -266 -342 -406 -59
-110 -113 -273 -131 -395 -14 -95 -7 -345 12 -435 89 -426 411 -791 816 -924
47 -15 96 -30 110 -32 14 -3 32 -7 40 -9 81 -24 366 -27 475 -6 145 28 336
104 444 177 20 13 53 35 73 49 83 56 288 277 288 312 0 7 4 13 8 13 9 0 40 50
40 64 0 5 5 12 10 15 16 10 92 193 107 257 38 168 43 204 40 349 -2 83 -5 165
-8 182 -13 71 -41 172 -69 245 -16 43 -29 80 -28 84 1 4 -2 10 -7 13 -5 3 -17
22 -27 41 -48 97 -131 208 -225 300 -73 71 -140 130 -149 130 -3 0 -19 11 -36
23 -102 77 -290 153 -481 193 -36 7 -329 16 -336 10z"/>
</g>
</svg>
